<svg xmlns="http://www.w3.org/2000/svg" xmlns:xlink="http://www.w3.org/1999/xlink" width="960" height="731.3"><rect width="960" height="731.3" rx="5" ry="5" class="a"/><svg y="0%" x="0%"><circle cx="20" cy="20" r="6" fill="#ff5f58"/><circle cx="40" cy="20" r="6" fill="#ffbd2e"/><circle cx="60" cy="20" r="6" fill="#18c132"/></svg><svg height="651.3" viewBox="0 0 90 65.13" width="900" x="25" xmlns="http://www.w3.org/2000/svg" xmlns:xlink="http://www.w3.org/1999/xlink" y="60"><style>@keyframes q{0%{transform:translateX(0)}8.73%{transform:translateX(-90px)}8.74%{transform:translateX(-180px)}9.12%{transform:translateX(-360px)}11.93%{transform:translateX(-450px)}12.39%{transform:translateX(-540px)}14.03%{transform:translateX(-630px)}15.39%{transform:translateX(-720px)}16%{transform:translateX(-810px)}16.83%{transform:translateX(-900px)}17.27%{transform:translateX(-990px)}18.13%{transform:translateX(-1080px)}19.08%{transform:translateX(-1170px)}19.79%{transform:translateX(-1260px)}20.65%{transform:translateX(-1350px)}21.69%{transform:translateX(-1440px)}22.33%{transform:translateX(-1530px)}23.23%{transform:translateX(-1620px)}23.8%{transform:translateX(-1710px)}24.15%{transform:translateX(-1800px)}25.32%{transform:translateX(-1890px)}26.91%{transform:translateX(-1980px)}27.79%{transform:translateX(-2070px)}28.55%{transform:translateX(-2160px)}30.06%{transform:translateX(-2250px)}31.14%{transform:translateX(-2340px)}32.49%{transform:translateX(-2430px)}33.29%{transform:translateX(-2520px)}34.12%{transform:translateX(-2610px)}34.8%{transform:translateX(-2700px)}35.53%{transform:translateX(-2790px)}36.35%{transform:translateX(-2880px)}38.2%{transform:translateX(-2970px)}39.41%{transform:translateX(-3060px)}42.3%{transform:translateX(-3240px)}42.31%{transform:translateX(-3330px)}44.95%{transform:translateX(-3420px)}51.94%{transform:translateX(-3510px)}51.96%{transform:translateX(-3780px)}60.78%{transform:translateX(-3870px)}60.79%{transform:translateX(-4050px)}60.8%{transform:translateX(-4230px)}60.87%{transform:translateX(-4320px)}69.69%{transform:translateX(-4500px)}69.72%{transform:translateX(-4590px)}69.73%{transform:translateX(-4680px)}69.78%{transform:translateX(-4770px)}78.6%{transform:translateX(-4950px)}78.61%{transform:translateX(-5040px)}87.42%{transform:translateX(-5130px)}90.71%{transform:translateX(-5310px)}90.73%{transform:translateX(-5400px)}91.18%{transform:translateX(-5580px)}to{transform:translateX(-5670px)}}.a{fill:#282d35}.f,.g,.h,.i,.j{fill:#a8cc8c;font-weight:700;white-space:pre}.g,.h,.i,.j{fill:#66c2cd}.h,.i,.j{fill:#71bef2}.i,.j{fill:#e88388}.j{fill:#dbab79}.k{fill:#b9c0cb}.k,.l,.m,.n{white-space:pre}.l{fill:#b9c0cb;font-weight:700}.m,.n{fill:#66c2cd}.n{fill:#b9bfca}</style><g font-family="Monaco,Consolas,Menlo,'Bitstream Vera Sans Mono','Powerline Symbols',monospace" font-size="1.67"><defs><symbol id="1"><text y="1.67" class="f">➜</text><text x="3.006" y="1.67" class="g">gh-sherpa</text><text x="13.026" y="1.67" class="h">git:(</text><text x="18.036" y="1.67" class="i">main</text><text x="22.044" y="1.67" class="h">)</text><text x="24.048" y="1.67" class="j">✗</text></symbol><symbol id="2"><text y="1.67" class="f">➜</text><text x="3.006" y="1.67" class="g">gh-sherpa</text><text x="13.026" y="1.67" class="h">git:(</text><text x="18.036" y="1.67" class="i">main</text><text x="22.044" y="1.67" class="h">)</text><text x="24.048" y="1.67" class="j">✗</text><text x="26.052" y="1.67" class="k">gh</text></symbol><symbol id="3"><text y="1.67" class="f">➜</text><text x="3.006" y="1.67" class="g">gh-sherpa</text><text x="13.026" y="1.67" class="h">git:(</text><text x="18.036" y="1.67" class="i">main</text><text x="22.044" y="1.67" class="h">)</text><text x="24.048" y="1.67" class="j">✗</text><text x="26.052" y="1.67" class="k">gh</text><text x="29.058" y="1.67" class="k">sherpa</text></symbol><symbol id="4"><text y="1.67" class="f">➜</text><text x="3.006" y="1.67" class="g">gh-sherpa</text><text x="13.026" y="1.67" class="h">git:(</text><text x="18.036" y="1.67" class="i">main</text><text x="22.044" y="1.67" class="h">)</text><text x="24.048" y="1.67" class="j">✗</text><text x="26.052" y="1.67" class="k">gh</text><text x="29.058" y="1.67" class="k">sherpa</text><text x="36.072" y="1.67" class="k">create-pr</text></symbol><symbol id="5"><text y="1.67" class="f">➜</text><text x="3.006" y="1.67" class="g">gh-sherpa</text><text x="13.026" y="1.67" class="h">git:(</text><text x="18.036" y="1.67" class="i">main</text><text x="22.044" y="1.67" class="h">)</text><text x="24.048" y="1.67" class="j">✗</text><text x="26.052" y="1.67" class="k">gh</text><text x="29.058" y="1.67" class="k">sherpa</text><text x="36.072" y="1.67" class="k">create-pr</text><text x="46.092" y="1.67" class="k">--issue</text></symbol><symbol id="6"><text y="1.67" class="f">➜</text><text x="3.006" y="1.67" class="g">gh-sherpa</text><text x="13.026" y="1.67" class="h">git:(</text><text x="18.036" y="1.67" class="i">main</text><text x="22.044" y="1.67" class="h">)</text><text x="24.048" y="1.67" class="j">✗</text><text x="26.052" y="1.67" class="k">gh</text><text x="29.058" y="1.67" class="k">sherpa</text><text x="36.072" y="1.67" class="k">create-pr</text><text x="46.092" y="1.67" class="k">--issue</text><text x="54.108" y="1.67" class="k">61</text></symbol><symbol id="7"><text y="1.67" class="k">=&gt;</text><text x="3.006" y="1.67" class="k">Running</text><text x="11.022" y="1.67" class="f">create-pr</text><text x="21.042" y="1.67" class="k">command</text><text x="29.058" y="1.67" class="k">in</text><text x="32.064" y="1.67" class="f">Sherpa</text><text x="38.076" y="1.67" class="k">.</text></symbol><symbol id="8"><text y="1.67" class="f">?</text><text x="2.004" y="1.67" class="l">Label</text><text x="8.016" y="1.67" class="l">&apos;kind/feature&apos;</text><text x="23.046" y="1.67" class="l">found.</text><text x="30.06" y="1.67" class="l">What</text><text x="35.07" y="1.67" class="l">type</text><text x="40.08" y="1.67" class="l">of</text><text x="43.086" y="1.67" class="l">branch</text><text x="50.1" y="1.67" class="l">name</text><text x="55.11" y="1.67" class="l">do</text><text x="58.116" y="1.67" class="l">you</text><text x="62.124" y="1.67" class="l">want</text><text x="67.134" y="1.67" class="l">to</text><text x="70.14" y="1.67" class="l">create?</text><text x="79.158" y="1.67" class="m">[Use</text><text x="84.168" y="1.67" class="m">arrows</text></symbol><symbol id="9"><text x="1.002" y="1.67" class="m">to</text><text x="4.008" y="1.67" class="m">move,</text><text x="10.02" y="1.67" class="m">type</text><text x="15.03" y="1.67" class="m">to</text><text x="18.036" y="1.67" class="m">filter]</text></symbol><symbol id="10"><text y="1.67" class="g">&gt;</text><text x="2.004" y="1.67" class="g">feature</text></symbol><symbol id="11"><text x="2.004" y="1.67" class="k">other</text></symbol><symbol id="12"><text y="1.67" class="f">?</text><text x="2.004" y="1.67" class="l">Label</text><text x="8.016" y="1.67" class="l">&apos;kind/feature&apos;</text><text x="23.046" y="1.67" class="l">found.</text><text x="30.06" y="1.67" class="l">What</text><text x="35.07" y="1.67" class="l">type</text><text x="40.08" y="1.67" class="l">of</text><text x="43.086" y="1.67" class="l">branch</text><text x="50.1" y="1.67" class="l">name</text><text x="55.11" y="1.67" class="l">do</text><text x="58.116" y="1.67" class="l">you</text><text x="62.124" y="1.67" class="l">want</text><text x="67.134" y="1.67" class="l">to</text><text x="70.14" y="1.67" class="l">create?</text><text x="78.156" y="1.67" class="m">feature</text></symbol><symbol id="13"><text y="1.67" class="f">?</text><text x="2.004" y="1.67" class="l">Please,</text><text x="10.02" y="1.67" class="l">write</text><text x="16.032" y="1.67" class="l">one</text><text x="20.04" y="1.67" class="l">additional</text><text x="31.062" y="1.67" class="l">description</text><text x="43.086" y="1.67" class="l">(optional).</text><text x="55.11" y="1.67" class="l">Truncate</text><text x="64.128" y="1.67" class="l">to</text><text x="67.134" y="1.67" class="l">32</text><text x="70.14" y="1.67" class="l">chars:</text><text x="77.154" y="1.67" class="n">(open-pr-with</text></symbol><symbol id="14"><text y="1.67" class="n">-templates)</text></symbol><symbol id="15"><text y="1.67" class="f">?</text><text x="2.004" y="1.67" class="l">Please,</text><text x="10.02" y="1.67" class="l">write</text><text x="16.032" y="1.67" class="l">one</text><text x="20.04" y="1.67" class="l">additional</text><text x="31.062" y="1.67" class="l">description</text><text x="43.086" y="1.67" class="l">(optional).</text><text x="55.11" y="1.67" class="l">Truncate</text><text x="64.128" y="1.67" class="l">to</text><text x="67.134" y="1.67" class="l">32</text><text x="70.14" y="1.67" class="l">chars:</text><text x="77.154" y="1.67" class="m">open-pr-with-</text></symbol><symbol id="16"><text y="1.67" class="m">templates</text></symbol><symbol id="17"><text y="1.67" class="k">A</text><text x="2.004" y="1.67" class="k">new</text><text x="6.012" y="1.67" class="k">pull</text><text x="11.022" y="1.67" class="k">request</text><text x="19.038" y="1.67" class="k">is</text><text x="22.044" y="1.67" class="k">going</text><text x="28.056" y="1.67" class="k">to</text><text x="31.062" y="1.67" class="k">be</text><text x="34.068" y="1.67" class="k">created</text><text x="42.084" y="1.67" class="k">from</text><text x="47.094" y="1.67" class="f">feature/GH-61-open-pr-with-templates</text><text x="84.168" y="1.67" class="k">to</text><text x="87.174" y="1.67" class="f">mai</text></symbol><symbol id="18"><text y="1.67" class="f">n</text><text x="2.004" y="1.67" class="k">branch</text></symbol><symbol id="19"><text y="1.67" class="f">?</text><text x="2.004" y="1.67" class="l">Do</text><text x="5.01" y="1.67" class="l">you</text><text x="9.018" y="1.67" class="l">want</text><text x="14.028" y="1.67" class="l">to</text><text x="17.034" y="1.67" class="l">continue</text><text x="26.052" y="1.67" class="n">(Y/n)</text></symbol><symbol id="20"><text y="1.67" class="f">?</text><text x="2.004" y="1.67" class="l">Do</text><text x="5.01" y="1.67" class="l">you</text><text x="9.018" y="1.67" class="l">want</text><text x="14.028" y="1.67" class="l">to</text><text x="17.034" y="1.67" class="l">continue</text><text x="26.052" y="1.67" class="m">Yes</text></symbol><symbol id="21"><text y="1.67" class="k">The</text><text x="4.008" y="1.67" class="k">pull</text><text x="9.018" y="1.67" class="k">request</text><text x="17.034" y="1.67" class="f">https://github.com/InditexTech/gh-sherpa/pull/75</text><text x="62.124" y="1.67" class="k">have</text><text x="67.134" y="1.67" class="k">been</text><text x="72.144" y="1.67" class="k">created!</text></symbol><symbol id="22"><text y="1.67" class="k">You</text><text x="4.008" y="1.67" class="k">are</text><text x="8.016" y="1.67" class="k">now</text><text x="12.024" y="1.67" class="k">working</text><text x="20.04" y="1.67" class="k">on</text><text x="23.046" y="1.67" class="k">the</text><text x="27.054" y="1.67" class="k">branch</text><text x="34.068" y="1.67" class="f">feature/GH-61-open-pr-with-templates</text></symbol><symbol id="23"><text y="1.67" class="f">➜</text><text x="3.006" y="1.67" class="g">gh-sherpa</text><text x="13.026" y="1.67" class="h">git:(</text><text x="18.036" y="1.67" class="i">feature/GH-61-open-pr-with-templates</text><text x="54.108" y="1.67" class="h">)</text><text x="56.112" y="1.67" class="j">✗</text></symbol><symbol id="a"><path fill="transparent" d="M0 0h90v31H0z"/></symbol><symbol id="b"><path fill="#6f7683" d="M0 0h1.102v2.171H0z"/></symbol></defs><path class="a" d="M0 0h90v65.13H0z"/><g style="animation-duration:17.007897s;animation-iteration-count:infinite;animation-name:q;animation-timing-function:steps(1,end)"><svg width="5760"><svg><use xlink:href="#a"/><use xlink:href="#b" x="-.004"/></svg><svg x="90"><use xlink:href="#a"/><use xlink:href="#b" x="-.004"/></svg><svg x="180"><use xlink:href="#a"/><use xlink:href="#b" x="-.004"/></svg><svg x="270"><use xlink:href="#a"/><use xlink:href="#b" x="25.996"/><use xlink:href="#1"/></svg><svg x="360"><use xlink:href="#a"/><use xlink:href="#b" x="25.996"/><use xlink:href="#1"/></svg><svg x="450"><use xlink:href="#a"/><use xlink:href="#b" x="26.996"/><text y="1.67" class="f">➜</text><text x="3.006" y="1.67" class="g">gh-sherpa</text><text x="13.026" y="1.67" class="h">git:(</text><text x="18.036" y="1.67" class="i">main</text><text x="22.044" y="1.67" class="h">)</text><text x="24.048" y="1.67" class="j">✗</text><text x="26.052" y="1.67" class="k">g</text></svg><svg x="540"><use xlink:href="#a"/><use xlink:href="#b" x="27.996"/><use xlink:href="#2"/></svg><svg x="630"><use xlink:href="#a"/><use xlink:href="#b" x="28.996"/><use xlink:href="#2"/></svg><svg x="720"><use xlink:href="#a"/><use xlink:href="#b" x="29.996"/><text y="1.67" class="f">➜</text><text x="3.006" y="1.67" class="g">gh-sherpa</text><text x="13.026" y="1.67" class="h">git:(</text><text x="18.036" y="1.67" class="i">main</text><text x="22.044" y="1.67" class="h">)</text><text x="24.048" y="1.67" class="j">✗</text><text x="26.052" y="1.67" class="k">gh</text><text x="29.058" y="1.67" class="k">s</text></svg><svg x="810"><use xlink:href="#a"/><use xlink:href="#b" x="30.996"/><text y="1.67" class="f">➜</text><text x="3.006" y="1.67" class="g">gh-sherpa</text><text x="13.026" y="1.67" class="h">git:(</text><text x="18.036" y="1.67" class="i">main</text><text x="22.044" y="1.67" class="h">)</text><text x="24.048" y="1.67" class="j">✗</text><text x="26.052" y="1.67" class="k">gh</text><text x="29.058" y="1.67" class="k">sh</text></svg><svg x="900"><use xlink:href="#a"/><use xlink:href="#b" x="31.996"/><text y="1.67" class="f">➜</text><text x="3.006" y="1.67" class="g">gh-sherpa</text><text x="13.026" y="1.67" class="h">git:(</text><text x="18.036" y="1.67" class="i">main</text><text x="22.044" y="1.67" class="h">)</text><text x="24.048" y="1.67" class="j">✗</text><text x="26.052" y="1.67" class="k">gh</text><text x="29.058" y="1.67" class="k">she</text></svg><svg x="990"><use xlink:href="#a"/><use xlink:href="#b" x="32.996"/><text y="1.67" class="f">➜</text><text x="3.006" y="1.67" class="g">gh-sherpa</text><text x="13.026" y="1.67" class="h">git:(</text><text x="18.036" y="1.67" class="i">main</text><text x="22.044" y="1.67" class="h">)</text><text x="24.048" y="1.67" class="j">✗</text><text x="26.052" y="1.67" class="k">gh</text><text x="29.058" y="1.67" class="k">sher</text></svg><svg x="1080"><use xlink:href="#a"/><use xlink:href="#b" x="33.996"/><text y="1.67" class="f">➜</text><text x="3.006" y="1.67" class="g">gh-sherpa</text><text x="13.026" y="1.67" class="h">git:(</text><text x="18.036" y="1.67" class="i">main</text><text x="22.044" y="1.67" class="h">)</text><text x="24.048" y="1.67" class="j">✗</text><text x="26.052" y="1.67" class="k">gh</text><text x="29.058" y="1.67" class="k">sherp</text></svg><svg x="1170"><use xlink:href="#a"/><use xlink:href="#b" x="34.996"/><use xlink:href="#3"/></svg><svg x="1260"><use xlink:href="#a"/><use xlink:href="#b" x="35.996"/><use xlink:href="#3"/></svg><svg x="1350"><use xlink:href="#a"/><use xlink:href="#b" x="36.996"/><text y="1.67" class="f">➜</text><text x="3.006" y="1.67" class="g">gh-sherpa</text><text x="13.026" y="1.67" class="h">git:(</text><text x="18.036" y="1.67" class="i">main</text><text x="22.044" y="1.67" class="h">)</text><text x="24.048" y="1.67" class="j">✗</text><text x="26.052" y="1.67" class="k">gh</text><text x="29.058" y="1.67" class="k">sherpa</text><text x="36.072" y="1.67" class="k">c</text></svg><svg x="1440"><use xlink:href="#a"/><use xlink:href="#b" x="37.996"/><text y="1.67" class="f">➜</text><text x="3.006" y="1.67" class="g">gh-sherpa</text><text x="13.026" y="1.67" class="h">git:(</text><text x="18.036" y="1.67" class="i">main</text><text x="22.044" y="1.67" class="h">)</text><text x="24.048" y="1.67" class="j">✗</text><text x="26.052" y="1.67" class="k">gh</text><text x="29.058" y="1.67" class="k">sherpa</text><text x="36.072" y="1.67" class="k">cr</text></svg><svg x="1530"><use xlink:href="#a"/><use xlink:href="#b" x="38.996"/><text y="1.67" class="f">➜</text><text x="3.006" y="1.67" class="g">gh-sherpa</text><text x="13.026" y="1.67" class="h">git:(</text><text x="18.036" y="1.67" class="i">main</text><text x="22.044" y="1.67" class="h">)</text><text x="24.048" y="1.67" class="j">✗</text><text x="26.052" y="1.67" class="k">gh</text><text x="29.058" y="1.67" class="k">sherpa</text><text x="36.072" y="1.67" class="k">cre</text></svg><svg x="1620"><use xlink:href="#a"/><use xlink:href="#b" x="39.996"/><text y="1.67" class="f">➜</text><text x="3.006" y="1.67" class="g">gh-sherpa</text><text x="13.026" y="1.67" class="h">git:(</text><text x="18.036" y="1.67" class="i">main</text><text x="22.044" y="1.67" class="h">)</text><text x="24.048" y="1.67" class="j">✗</text><text x="26.052" y="1.67" class="k">gh</text><text x="29.058" y="1.67" class="k">sherpa</text><text x="36.072" y="1.67" class="k">crea</text></svg><svg x="1710"><use xlink:href="#a"/><use xlink:href="#b" x="40.996"/><text y="1.67" class="f">➜</text><text x="3.006" y="1.67" class="g">gh-sherpa</text><text x="13.026" y="1.67" class="h">git:(</text><text x="18.036" y="1.67" class="i">main</text><text x="22.044" y="1.67" class="h">)</text><text x="24.048" y="1.67" class="j">✗</text><text x="26.052" y="1.67" class="k">gh</text><text x="29.058" y="1.67" class="k">sherpa</text><text x="36.072" y="1.67" class="k">creat</text></svg><svg x="1800"><use xlink:href="#a"/><use xlink:href="#b" x="41.996"/><text y="1.67" class="f">➜</text><text x="3.006" y="1.67" class="g">gh-sherpa</text><text x="13.026" y="1.67" class="h">git:(</text><text x="18.036" y="1.67" class="i">main</text><text x="22.044" y="1.67" class="h">)</text><text x="24.048" y="1.67" class="j">✗</text><text x="26.052" y="1.67" class="k">gh</text><text x="29.058" y="1.67" class="k">sherpa</text><text x="36.072" y="1.67" class="k">create</text></svg><svg x="1890"><use xlink:href="#a"/><use xlink:href="#b" x="42.996"/><text y="1.67" class="f">➜</text><text x="3.006" y="1.67" class="g">gh-sherpa</text><text x="13.026" y="1.67" class="h">git:(</text><text x="18.036" y="1.67" class="i">main</text><text x="22.044" y="1.67" class="h">)</text><text x="24.048" y="1.67" class="j">✗</text><text x="26.052" y="1.67" class="k">gh</text><text x="29.058" y="1.67" class="k">sherpa</text><text x="36.072" y="1.67" class="k">create-</text></svg><svg x="1980"><use xlink:href="#a"/><use xlink:href="#b" x="43.996"/><text y="1.67" class="f">➜</text><text x="3.006" y="1.67" class="g">gh-sherpa</text><text x="13.026" y="1.67" class="h">git:(</text><text x="18.036" y="1.67" class="i">main</text><text x="22.044" y="1.67" class="h">)</text><text x="24.048" y="1.67" class="j">✗</text><text x="26.052" y="1.67" class="k">gh</text><text x="29.058" y="1.67" class="k">sherpa</text><text x="36.072" y="1.67" class="k">create-p</text></svg><svg x="2070"><use xlink:href="#a"/><use xlink:href="#b" x="44.996"/><use xlink:href="#4"/></svg><svg x="2160"><use xlink:href="#a"/><use xlink:href="#b" x="45.996"/><use xlink:href="#4"/></svg><svg x="2250"><use xlink:href="#a"/><use xlink:href="#b" x="46.996"/><text y="1.67" class="f">➜</text><text x="3.006" y="1.67" class="g">gh-sherpa</text><text x="13.026" y="1.67" class="h">git:(</text><text x="18.036" y="1.67" class="i">main</text><text x="22.044" y="1.67" class="h">)</text><text x="24.048" y="1.67" class="j">✗</text><text x="26.052" y="1.67" class="k">gh</text><text x="29.058" y="1.67" class="k">sherpa</text><text x="36.072" y="1.67" class="k">create-pr</text><text x="46.092" y="1.67" class="k">-</text></svg><svg x="2340"><use xlink:href="#a"/><use xlink:href="#b" x="47.996"/><text y="1.67" class="f">➜</text><text x="3.006" y="1.67" class="g">gh-sherpa</text><text x="13.026" y="1.67" class="h">git:(</text><text x="18.036" y="1.67" class="i">main</text><text x="22.044" y="1.67" class="h">)</text><text x="24.048" y="1.67" class="j">✗</text><text x="26.052" y="1.67" class="k">gh</text><text x="29.058" y="1.67" class="k">sherpa</text><text x="36.072" y="1.67" class="k">create-pr</text><text x="46.092" y="1.67" class="k">--</text></svg><svg x="2430"><use xlink:href="#a"/><use xlink:href="#b" x="48.996"/><text y="1.67" class="f">➜</text><text x="3.006" y="1.67" class="g">gh-sherpa</text><text x="13.026" y="1.67" class="h">git:(</text><text x="18.036" y="1.67" class="i">main</text><text x="22.044" y="1.67" class="h">)</text><text x="24.048" y="1.67" class="j">✗</text><text x="26.052" y="1.67" class="k">gh</text><text x="29.058" y="1.67" class="k">sherpa</text><text x="36.072" y="1.67" class="k">create-pr</text><text x="46.092" y="1.67" class="k">--i</text></svg><svg x="2520"><use xlink:href="#a"/><use xlink:href="#b" x="49.996"/><text y="1.67" class="f">➜</text><text x="3.006" y="1.67" class="g">gh-sherpa</text><text x="13.026" y="1.67" class="h">git:(</text><text x="18.036" y="1.67" class="i">main</text><text x="22.044" y="1.67" class="h">)</text><text x="24.048" y="1.67" class="j">✗</text><text x="26.052" y="1.67" class="k">gh</text><text x="29.058" y="1.67" class="k">sherpa</text><text x="36.072" y="1.67" class="k">create-pr</text><text x="46.092" y="1.67" class="k">--is</text></svg><svg x="2610"><use xlink:href="#a"/><use xlink:href="#b" x="50.996"/><text y="1.67" class="f">➜</text><text x="3.006" y="1.67" class="g">gh-sherpa</text><text x="13.026" y="1.67" class="h">git:(</text><text x="18.036" y="1.67" class="i">main</text><text x="22.044" y="1.67" class="h">)</text><text x="24.048" y="1.67" class="j">✗</text><text x="26.052" y="1.67" class="k">gh</text><text x="29.058" y="1.67" class="k">sherpa</text><text x="36.072" y="1.67" class="k">create-pr</text><text x="46.092" y="1.67" class="k">--iss</text></svg><svg x="2700"><use xlink:href="#a"/><use xlink:href="#b" x="51.996"/><text y="1.67" class="f">➜</text><text x="3.006" y="1.67" class="g">gh-sherpa</text><text x="13.026" y="1.67" class="h">git:(</text><text x="18.036" y="1.67" class="i">main</text><text x="22.044" y="1.67" class="h">)</text><text x="24.048" y="1.67" class="j">✗</text><text x="26.052" y="1.67" class="k">gh</text><text x="29.058" y="1.67" class="k">sherpa</text><text x="36.072" y="1.67" class="k">create-pr</text><text x="46.092" y="1.67" class="k">--issu</text></svg><svg x="2790"><use xlink:href="#a"/><use xlink:href="#b" x="52.996"/><use xlink:href="#5"/></svg><svg x="2880"><use xlink:href="#a"/><use xlink:href="#b" x="53.996"/><use xlink:href="#5"/></svg><svg x="2970"><use xlink:href="#a"/><use xlink:href="#b" x="54.996"/><text y="1.67" class="f">➜</text><text x="3.006" y="1.67" class="g">gh-sherpa</text><text x="13.026" y="1.67" class="h">git:(</text><text x="18.036" y="1.67" class="i">main</text><text x="22.044" y="1.67" class="h">)</text><text x="24.048" y="1.67" class="j">✗</text><text x="26.052" y="1.67" class="k">gh</text><text x="29.058" y="1.67" class="k">sherpa</text><text x="36.072" y="1.67" class="k">create-pr</text><text x="46.092" y="1.67" class="k">--issue</text><text x="54.108" y="1.67" class="k">6</text></svg><svg x="3060"><use xlink:href="#a"/><use xlink:href="#b" x="55.996"/><use xlink:href="#6"/></svg><svg x="3150"><use xlink:href="#a"/><use xlink:href="#b" x="55.996"/><use xlink:href="#6"/></svg><svg x="3240"><use xlink:href="#a"/><use xlink:href="#b" x="-.004" y="2.146"/><use xlink:href="#6"/></svg><svg x="3330"><use xlink:href="#a"/><use xlink:href="#b" x="-.004" y="2.146"/><use xlink:href="#6"/></svg><svg x="3420"><use xlink:href="#a"/><use xlink:href="#b" x="-.004" y="8.659"/><use xlink:href="#6"/><use xlink:href="#7" y="4.342"/></svg><svg x="3510"><use xlink:href="#a"/><use xlink:href="#6"/><use xlink:href="#7" y="4.342"/></svg><svg x="3600"><use xlink:href="#a"/><use xlink:href="#6"/><use xlink:href="#7" y="4.342"/><use xlink:href="#8" y="8.684"/><use xlink:href="#9" y="10.855"/><use xlink:href="#10" y="13.026"/><use xlink:href="#11" y="15.197"/></svg><svg x="3690"><use xlink:href="#a"/><use xlink:href="#6"/><use xlink:href="#7" y="4.342"/><use xlink:href="#8" y="8.684"/><use xlink:href="#9" y="10.855"/><use xlink:href="#10" y="13.026"/><use xlink:href="#11" y="15.197"/></svg><svg x="3780"><use xlink:href="#a"/><use xlink:href="#6"/><use xlink:href="#7" y="4.342"/><use xlink:href="#8" y="8.684"/><use xlink:href="#9" y="10.855"/><use xlink:href="#10" y="13.026"/><use xlink:href="#11" y="15.197"/></svg><svg x="3870"><use xlink:href="#a"/><use xlink:href="#b" x="-.004" y="17.343"/><use xlink:href="#6"/><use xlink:href="#7" y="4.342"/><use xlink:href="#8" y="8.684"/><use xlink:href="#9" y="10.855"/><use xlink:href="#10" y="13.026"/><use xlink:href="#11" y="15.197"/></svg><svg x="3960"><use xlink:href="#a"/><use xlink:href="#b" x="-.004" y="8.659"/><use xlink:href="#6"/><use xlink:href="#7" y="4.342"/></svg><svg x="4050"><use xlink:href="#a"/><use xlink:href="#b" x="-.004" y="10.83"/><use xlink:href="#6"/><use xlink:href="#7" y="4.342"/><use xlink:href="#12" y="8.684"/></svg><svg x="4140"><use xlink:href="#a"/><use xlink:href="#b" x="11.996" y="13.001"/><use xlink:href="#6"/><use xlink:href="#7" y="4.342"/><use xlink:href="#12" y="8.684"/><use xlink:href="#13" y="10.855"/><use xlink:href="#14" y="13.026"/></svg><svg x="4230"><use xlink:href="#a"/><use xlink:href="#6"/><use xlink:href="#7" y="4.342"/><use xlink:href="#12" y="8.684"/><use xlink:href="#13" y="10.855"/><use xlink:href="#14" y="13.026"/></svg><svg x="4320"><use xlink:href="#a"/><use xlink:href="#b" x="11.996" y="13.001"/><use xlink:href="#6"/><use xlink:href="#7" y="4.342"/><use xlink:href="#12" y="8.684"/><use xlink:href="#13" y="10.855"/><use xlink:href="#14" y="13.026"/></svg><svg x="4410"><use xlink:href="#a"/><use xlink:href="#b" x="-.004" y="13.001"/><use xlink:href="#6"/><use xlink:href="#7" y="4.342"/><use xlink:href="#12" y="8.684"/><use xlink:href="#13" y="10.855"/><use xlink:href="#14" y="13.026"/></svg><svg x="4500"><use xlink:href="#a"/><use xlink:href="#b" x="-.004" y="10.83"/><use xlink:href="#6"/><use xlink:href="#7" y="4.342"/><use xlink:href="#12" y="8.684"/></svg><svg x="4590"><use xlink:href="#a"/><use xlink:href="#b" x="-.004" y="21.685"/><use xlink:href="#6"/><use xlink:href="#7" y="4.342"/><use xlink:href="#12" y="8.684"/><use xlink:href="#15" y="10.855"/><use xlink:href="#16" y="13.026"/><use xlink:href="#17" y="17.368"/><use xlink:href="#18" y="19.539"/></svg><svg x="4680"><use xlink:href="#a"/><use xlink:href="#6"/><use xlink:href="#7" y="4.342"/><use xlink:href="#12" y="8.684"/><use xlink:href="#15" y="10.855"/><use xlink:href="#16" y="13.026"/><use xlink:href="#17" y="17.368"/><use xlink:href="#18" y="19.539"/><use xlink:href="#19" y="21.71"/></svg><svg x="4770"><use xlink:href="#a"/><use xlink:href="#b" x="31.996" y="21.685"/><use xlink:href="#6"/><use xlink:href="#7" y="4.342"/><use xlink:href="#12" y="8.684"/><use xlink:href="#15" y="10.855"/><use xlink:href="#16" y="13.026"/><use xlink:href="#17" y="17.368"/><use xlink:href="#18" y="19.539"/><use xlink:href="#19" y="21.71"/></svg><svg x="4860"><use xlink:href="#a"/><use xlink:href="#b" x="-.004" y="23.856"/><use xlink:href="#6"/><use xlink:href="#7" y="4.342"/><use xlink:href="#12" y="8.684"/><use xlink:href="#15" y="10.855"/><use xlink:href="#16" y="13.026"/><use xlink:href="#17" y="17.368"/><use xlink:href="#18" y="19.539"/><use xlink:href="#19" y="21.71"/></svg><svg x="4950"><use xlink:href="#a"/><use xlink:href="#b" x="-.004" y="21.685"/><use xlink:href="#6"/><use xlink:href="#7" y="4.342"/><use xlink:href="#12" y="8.684"/><use xlink:href="#15" y="10.855"/><use xlink:href="#16" y="13.026"/><use xlink:href="#17" y="17.368"/><use xlink:href="#18" y="19.539"/></svg><svg x="5040"><use xlink:href="#a"/><use xlink:href="#b" x="-.004" y="23.856"/><use xlink:href="#6"/><use xlink:href="#7" y="4.342"/><use xlink:href="#12" y="8.684"/><use xlink:href="#15" y="10.855"/><use xlink:href="#16" y="13.026"/><use xlink:href="#17" y="17.368"/><use xlink:href="#18" y="19.539"/><use xlink:href="#20" y="21.71"/></svg><svg x="5130"><use xlink:href="#a"/><use xlink:href="#b" x="-.004" y="30.369"/><use xlink:href="#6"/><use xlink:href="#7" y="4.342"/><use xlink:href="#12" y="8.684"/><use xlink:href="#15" y="10.855"/><use xlink:href="#16" y="13.026"/><use xlink:href="#17" y="17.368"/><use xlink:href="#18" y="19.539"/><use xlink:href="#20" y="21.71"/><use xlink:href="#21" y="26.052"/><use xlink:href="#22" y="28.223"/></svg><svg x="5220"><use xlink:href="#a"/><use xlink:href="#b" x="-.004" y="30.369"/><use xlink:href="#6"/><use xlink:href="#7" y="4.342"/><use xlink:href="#12" y="8.684"/><use xlink:href="#15" y="10.855"/><use xlink:href="#16" y="13.026"/><use xlink:href="#17" y="17.368"/><use xlink:href="#18" y="19.539"/><use xlink:href="#20" y="21.71"/><use xlink:href="#21" y="26.052"/><use xlink:href="#22" y="28.223"/></svg><svg x="5310"><use xlink:href="#a"/><use xlink:href="#b" x="-.004" y="30.369"/><use xlink:href="#6"/><use xlink:href="#7" y="4.342"/><use xlink:href="#12" y="8.684"/><use xlink:href="#15" y="10.855"/><use xlink:href="#16" y="13.026"/><use xlink:href="#17" y="17.368"/><use xlink:href="#18" y="19.539"/><use xlink:href="#20" y="21.71"/><use xlink:href="#21" y="26.052"/><use xlink:href="#22" y="28.223"/></svg><svg x="5400"><use xlink:href="#a"/><use xlink:href="#b" x="-.004" y="30.369"/><use xlink:href="#6"/><use xlink:href="#7" y="4.342"/><use xlink:href="#12" y="8.684"/><use xlink:href="#15" y="10.855"/><use xlink:href="#16" y="13.026"/><use xlink:href="#17" y="17.368"/><use xlink:href="#18" y="19.539"/><use xlink:href="#20" y="21.71"/><use xlink:href="#21" y="26.052"/><use xlink:href="#22" y="28.223"/></svg><svg x="5490"><use xlink:href="#a"/><use xlink:href="#b" x="57.996" y="30.369"/><use xlink:href="#6"/><use xlink:href="#7" y="4.342"/><use xlink:href="#12" y="8.684"/><use xlink:href="#15" y="10.855"/><use xlink:href="#16" y="13.026"/><use xlink:href="#17" y="17.368"/><use xlink:href="#18" y="19.539"/><use xlink:href="#20" y="21.71"/><use xlink:href="#21" y="26.052"/><use xlink:href="#22" y="28.223"/><use xlink:href="#23" y="30.394"/></svg><svg x="5580"><use xlink:href="#a"/><use xlink:href="#b" x="57.996" y="30.369"/><use xlink:href="#6"/><use xlink:href="#7" y="4.342"/><use xlink:href="#12" y="8.684"/><use xlink:href="#15" y="10.855"/><use xlink:href="#16" y="13.026"/><use xlink:href="#17" y="17.368"/><use xlink:href="#18" y="19.539"/><use xlink:href="#20" y="21.71"/><use xlink:href="#21" y="26.052"/><use xlink:href="#22" y="28.223"/><use xlink:href="#23" y="30.394"/></svg><svg x="5670"><use xlink:href="#a"/><use xlink:href="#b" x="-.004" y="32.54"/><use xlink:href="#6"/><use xlink:href="#7" y="4.342"/><use xlink:href="#12" y="8.684"/><use xlink:href="#15" y="10.855"/><use xlink:href="#16" y="13.026"/><use xlink:href="#17" y="17.368"/><use xlink:href="#18" y="19.539"/><use xlink:href="#20" y="21.71"/><use xlink:href="#21" y="26.052"/><use xlink:href="#22" y="28.223"/><use xlink:href="#23" y="30.394"/></svg></svg></g></g></svg></svg>